<?xml version="1.0" encoding="utf-8" standalone="no"?>
<!DOCTYPE svg PUBLIC "-//W3C//DTD SVG 1.1//EN"
  "http://www.w3.org/Graphics/SVG/1.1/DTD/svg11.dtd">
<!-- Created with matplotlib (http://matplotlib.org/) -->
<svg height="515pt" version="1.1" viewBox="0 0 914 515" width="914pt" xmlns="http://www.w3.org/2000/svg" xmlns:xlink="http://www.w3.org/1999/xlink">
 <defs>
  <style type="text/css">
*{stroke-linecap:butt;stroke-linejoin:round;}
  </style>
 </defs>
 <g id="figure_1">
  <g id="patch_1">
   <path d="M 0 515.671975 
L 914.2 515.671975 
L 914.2 0 
L 0 0 
z
" style="fill:none;"/>
  </g>
  <g id="axes_1">
   <g id="patch_2">
    <path d="M 459.760464 37.970157 
C 420.782724 37.970157 382.487194 48.260859 348.759473 67.798132 
C 315.031752 87.335405 287.052482 115.435345 267.660539 149.246834 
L 327.019416 183.291002 
C 340.419249 159.927263 359.752924 140.510205 383.05878 127.009949 
C 406.364635 113.509693 432.826846 106.398818 459.760464 106.398818 
L 459.760464 37.970157 
z
" style="fill:#3182bd;stroke:#ffffff;stroke-linejoin:miter;stroke-width:0.48;"/>
   </g>
   <g id="patch_3">
    <path d="M 267.660539 149.246834 
C 239.188755 198.889789 231.040041 257.686684 244.93789 313.201684 
C 258.835739 368.716685 293.726011 416.739026 342.229242 447.111746 
L 378.54639 389.115656 
C 345.030657 368.128107 320.921479 334.944669 311.318065 296.583804 
C 301.714652 258.222938 307.345413 217.594284 327.019416 183.291002 
L 267.660539 149.246834 
z
" style="fill:#e6550d;stroke:#ffffff;stroke-linejoin:miter;stroke-width:0.48;"/>
   </g>
   <g id="patch_4">
    <path d="M 342.229242 447.111746 
C 342.229242 447.111746 342.229242 447.111746 342.229242 447.111746 
L 378.54639 389.115656 
C 378.54639 389.115656 378.54639 389.115656 378.54639 389.115656 
L 342.229242 447.111746 
z
" style="fill:#31a354;stroke:#ffffff;stroke-linejoin:miter;stroke-width:0.48;"/>
   </g>
   <g id="patch_5">
    <path d="M 342.229242 447.111746 
C 367.216239 462.758602 395.078089 473.259323 424.176761 477.996558 
C 453.275433 482.733794 483.029279 481.612852 511.689033 474.699635 
C 540.348788 467.786418 567.341577 455.219113 591.080463 437.736566 
C 614.819348 420.25402 634.829817 398.205687 649.93543 372.887817 
C 665.041043 347.569946 674.939857 319.488612 679.049908 290.29475 
C 683.159959 261.100888 681.399093 231.378048 673.870833 202.873673 
C 666.342573 174.369298 653.197399 147.653156 635.208134 124.295921 
C 617.218868 100.938686 594.745094 81.407241 569.108072 66.849865 
L 535.319661 126.354696 
C 553.034843 136.413843 568.564221 149.910072 580.994804 166.049921 
C 593.425386 182.18977 602.508701 200.650625 607.710729 220.347148 
C 612.912757 240.043671 614.129515 260.582153 611.28947 280.755112 
C 608.449424 300.928071 601.609344 320.332273 591.171365 337.826921 
C 580.733387 355.32157 566.906153 370.556967 550.502583 382.637407 
C 534.099013 394.717847 515.446996 403.401855 495.643105 408.178888 
C 475.839215 412.955921 455.279308 413.730491 435.172125 410.457061 
C 415.064943 407.183632 395.812404 399.927634 378.54639 389.115656 
L 342.229242 447.111746 
z
" style="fill:#756bb1;stroke:#ffffff;stroke-linejoin:miter;stroke-width:0.48;"/>
   </g>
   <g id="patch_6">
    <path d="M 569.108072 66.849865 
C 552.510189 57.42515 534.763255 50.185726 516.308996 45.311785 
C 497.854737 40.437844 478.847543 37.970161 459.760506 37.970157 
L 459.760493 106.398818 
C 472.949636 106.398821 486.083607 108.10399 498.8355 111.471883 
C 511.587393 114.839777 523.850524 119.842218 535.319661 126.354696 
L 569.108072 66.849865 
z
" style="fill:#636363;stroke:#ffffff;stroke-linejoin:miter;stroke-width:0.48;"/>
   </g>
   <g id="patch_7">
    <path d="M 459.760464 106.398818 
C 458.223833 106.398818 456.687289 106.421964 455.151356 106.468248 
C 453.615422 106.514532 452.080272 106.583948 450.546429 106.676474 
L 454.666743 174.980974 
C 455.514685 174.929823 456.36335 174.891448 457.212448 174.865862 
C 458.061546 174.840275 458.910981 174.827479 459.760464 174.827479 
L 459.760464 106.398818 
z
" style="fill:#3182bd;stroke:#ffffff;stroke-linejoin:miter;stroke-width:0.48;"/>
   </g>
   <g id="patch_8">
    <path d="M 450.546429 106.676474 
C 425.220187 108.204222 400.667085 116.007141 379.105288 129.380304 
C 357.54349 142.753466 339.642466 161.281652 327.019418 183.290997 
L 386.378294 217.335167 
C 393.356592 205.167917 403.252673 194.925129 415.172508 187.53215 
C 427.092344 180.139172 440.665839 175.825546 454.666743 174.980974 
L 450.546429 106.676474 
z
" style="fill:#9ecae1;stroke:#ffffff;stroke-linejoin:miter;stroke-width:0.48;"/>
   </g>
   <g id="patch_9">
    <path d="M 327.019418 183.290997 
C 326.800995 183.671836 326.584212 184.053614 326.369075 184.436319 
C 326.153938 184.819024 325.940448 185.202653 325.728613 185.587196 
L 385.664709 218.604556 
C 385.781816 218.391973 385.899837 218.179894 386.01877 217.968326 
C 386.137703 217.756759 386.257545 217.545704 386.378294 217.335167 
L 327.019418 183.290997 
z
" style="fill:#e6550d;stroke:#ffffff;stroke-linejoin:miter;stroke-width:0.48;"/>
   </g>
   <g id="patch_10">
    <path d="M 325.728613 185.587196 
C 306.867336 219.825889 301.82437 260.02328 311.643413 297.860065 
C 321.462455 335.696849 345.415926 368.36936 378.546384 389.115653 
L 414.863534 331.119565 
C 396.548288 319.650558 383.306283 301.588475 377.8781 280.671468 
C 372.449917 259.754461 375.23778 237.532459 385.664709 218.604556 
L 325.728613 185.587196 
z
" style="fill:#fdae6b;stroke:#ffffff;stroke-linejoin:miter;stroke-width:0.48;"/>
   </g>
   <g id="patch_11">
    <path d="M 378.546384 389.115653 
C 378.546384 389.115653 378.546384 389.115653 378.546384 389.115653 
L 414.863534 331.119565 
C 414.863534 331.119565 414.863534 331.119565 414.863534 331.119565 
L 378.546384 389.115653 
z
" style="fill:#31a354;stroke:#ffffff;stroke-linejoin:miter;stroke-width:0.48;"/>
   </g>
   <g id="patch_12">
    <path d="M 378.546384 389.115653 
C 378.546384 389.115653 378.546384 389.115653 378.546384 389.115653 
L 414.863534 331.119565 
C 414.863534 331.119565 414.863534 331.119565 414.863534 331.119565 
L 378.546384 389.115653 
z
" style="fill:#a1d99b;stroke:#ffffff;stroke-linejoin:miter;stroke-width:0.48;"/>
   </g>
   <g id="patch_13">
    <path d="M 378.546384 389.115653 
C 394.404383 399.045932 411.950044 405.984018 430.310877 409.584904 
C 448.67171 413.18579 467.538243 413.388781 485.972303 410.183784 
L 474.250945 342.766491 
C 464.060191 344.538284 453.630357 344.426066 443.480085 342.435417 
C 433.329812 340.444768 423.630185 336.609241 414.863534 331.119565 
L 378.546384 389.115653 
z
" style="fill:#756bb1;stroke:#ffffff;stroke-linejoin:miter;stroke-width:0.48;"/>
   </g>
   <g id="patch_14">
    <path d="M 485.972303 410.183784 
C 517.030186 404.783975 545.67359 389.916657 567.964284 367.625965 
C 590.254979 345.335272 605.122299 316.691869 610.522112 285.633986 
C 615.921924 254.576104 611.594865 222.595511 598.13587 194.089275 
C 584.676875 165.583039 562.732404 141.920369 535.319642 126.354686 
L 501.53124 185.859522 
C 516.685618 194.464574 528.817004 207.545819 536.257432 223.304693 
C 543.697861 239.063567 546.089954 256.743142 543.104819 273.912623 
C 540.119684 291.082104 531.900703 306.916807 519.577916 319.239592 
C 507.25513 331.562377 491.420426 339.781358 474.250945 342.766491 
L 485.972303 410.183784 
z
" style="fill:#bcbddc;stroke:#ffffff;stroke-linejoin:miter;stroke-width:0.48;"/>
   </g>
   <g id="patch_15">
    <path d="M 535.319642 126.354686 
C 533.219781 125.16233 531.09199 124.019846 528.938058 122.928194 
C 526.784125 121.836542 524.604655 120.796028 522.401477 119.807526 
L 494.389794 182.240108 
C 495.607759 182.786574 496.812618 183.361793 498.00336 183.965282 
C 499.194101 184.568771 500.37039 185.200361 501.53124 185.859522 
L 535.319642 126.354686 
z
" style="fill:#636363;stroke:#ffffff;stroke-linejoin:miter;stroke-width:0.48;"/>
   </g>
   <g id="patch_16">
    <path d="M 522.401477 119.807526 
C 512.578696 115.40033 502.318173 112.042057 491.790493 109.78854 
C 481.262812 107.535023 470.526641 106.398819 459.760472 106.398818 
L 459.760469 174.827479 
C 465.712244 174.82748 471.647435 175.455598 477.467368 176.701392 
C 483.287302 177.947186 488.959545 179.803713 494.389794 182.240108 
L 522.401477 119.807526 
z
" style="fill:#bdbdbd;stroke:#ffffff;stroke-linejoin:miter;stroke-width:0.48;"/>
   </g>
   <g id="matplotlib.axis_1"/>
   <g id="matplotlib.axis_2"/>
   <g id="text_1">
    <!-- Squamous Cell -->
    <defs>
     <path d="M 53.515625 70.515625 
L 53.515625 60.890625 
Q 47.90625 63.578125 42.921875 64.890625 
Q 37.9375 66.21875 33.296875 66.21875 
Q 25.25 66.21875 20.875 63.09375 
Q 16.5 59.96875 16.5 54.203125 
Q 16.5 49.359375 19.40625 46.890625 
Q 22.3125 44.4375 30.421875 42.921875 
L 36.375 41.703125 
Q 47.40625 39.59375 52.65625 34.296875 
Q 57.90625 29 57.90625 20.125 
Q 57.90625 9.515625 50.796875 4.046875 
Q 43.703125 -1.421875 29.984375 -1.421875 
Q 24.8125 -1.421875 18.96875 -0.25 
Q 13.140625 0.921875 6.890625 3.21875 
L 6.890625 13.375 
Q 12.890625 10.015625 18.65625 8.296875 
Q 24.421875 6.59375 29.984375 6.59375 
Q 38.421875 6.59375 43.015625 9.90625 
Q 47.609375 13.234375 47.609375 19.390625 
Q 47.609375 24.75 44.3125 27.78125 
Q 41.015625 30.8125 33.5 32.328125 
L 27.484375 33.5 
Q 16.453125 35.6875 11.515625 40.375 
Q 6.59375 45.0625 6.59375 53.421875 
Q 6.59375 63.09375 13.40625 68.65625 
Q 20.21875 74.21875 32.171875 74.21875 
Q 37.3125 74.21875 42.625 73.28125 
Q 47.953125 72.359375 53.515625 70.515625 
z
" id="DejaVuSans-53"/>
     <path d="M 14.796875 27.296875 
Q 14.796875 17.390625 18.875 11.75 
Q 22.953125 6.109375 30.078125 6.109375 
Q 37.203125 6.109375 41.296875 11.75 
Q 45.40625 17.390625 45.40625 27.296875 
Q 45.40625 37.203125 41.296875 42.84375 
Q 37.203125 48.484375 30.078125 48.484375 
Q 22.953125 48.484375 18.875 42.84375 
Q 14.796875 37.203125 14.796875 27.296875 
z
M 45.40625 8.203125 
Q 42.578125 3.328125 38.25 0.953125 
Q 33.9375 -1.421875 27.875 -1.421875 
Q 17.96875 -1.421875 11.734375 6.484375 
Q 5.515625 14.40625 5.515625 27.296875 
Q 5.515625 40.1875 11.734375 48.09375 
Q 17.96875 56 27.875 56 
Q 33.9375 56 38.25 53.625 
Q 42.578125 51.265625 45.40625 46.390625 
L 45.40625 54.6875 
L 54.390625 54.6875 
L 54.390625 -20.796875 
L 45.40625 -20.796875 
z
" id="DejaVuSans-71"/>
     <path d="M 8.5 21.578125 
L 8.5 54.6875 
L 17.484375 54.6875 
L 17.484375 21.921875 
Q 17.484375 14.15625 20.5 10.265625 
Q 23.53125 6.390625 29.59375 6.390625 
Q 36.859375 6.390625 41.078125 11.03125 
Q 45.3125 15.671875 45.3125 23.6875 
L 45.3125 54.6875 
L 54.296875 54.6875 
L 54.296875 0 
L 45.3125 0 
L 45.3125 8.40625 
Q 42.046875 3.421875 37.71875 1 
Q 33.40625 -1.421875 27.6875 -1.421875 
Q 18.265625 -1.421875 13.375 4.4375 
Q 8.5 10.296875 8.5 21.578125 
z
M 31.109375 56 
z
" id="DejaVuSans-75"/>
     <path d="M 34.28125 27.484375 
Q 23.390625 27.484375 19.1875 25 
Q 14.984375 22.515625 14.984375 16.5 
Q 14.984375 11.71875 18.140625 8.90625 
Q 21.296875 6.109375 26.703125 6.109375 
Q 34.1875 6.109375 38.703125 11.40625 
Q 43.21875 16.703125 43.21875 25.484375 
L 43.21875 27.484375 
z
M 52.203125 31.203125 
L 52.203125 0 
L 43.21875 0 
L 43.21875 8.296875 
Q 40.140625 3.328125 35.546875 0.953125 
Q 30.953125 -1.421875 24.3125 -1.421875 
Q 15.921875 -1.421875 10.953125 3.296875 
Q 6 8.015625 6 15.921875 
Q 6 25.140625 12.171875 29.828125 
Q 18.359375 34.515625 30.609375 34.515625 
L 43.21875 34.515625 
L 43.21875 35.40625 
Q 43.21875 41.609375 39.140625 45 
Q 35.0625 48.390625 27.6875 48.390625 
Q 23 48.390625 18.546875 47.265625 
Q 14.109375 46.140625 10.015625 43.890625 
L 10.015625 52.203125 
Q 14.9375 54.109375 19.578125 55.046875 
Q 24.21875 56 28.609375 56 
Q 40.484375 56 46.34375 49.84375 
Q 52.203125 43.703125 52.203125 31.203125 
z
" id="DejaVuSans-61"/>
     <path d="M 52 44.1875 
Q 55.375 50.25 60.0625 53.125 
Q 64.75 56 71.09375 56 
Q 79.640625 56 84.28125 50.015625 
Q 88.921875 44.046875 88.921875 33.015625 
L 88.921875 0 
L 79.890625 0 
L 79.890625 32.71875 
Q 79.890625 40.578125 77.09375 44.375 
Q 74.3125 48.1875 68.609375 48.1875 
Q 61.625 48.1875 57.5625 43.546875 
Q 53.515625 38.921875 53.515625 30.90625 
L 53.515625 0 
L 44.484375 0 
L 44.484375 32.71875 
Q 44.484375 40.625 41.703125 44.40625 
Q 38.921875 48.1875 33.109375 48.1875 
Q 26.21875 48.1875 22.15625 43.53125 
Q 18.109375 38.875 18.109375 30.90625 
L 18.109375 0 
L 9.078125 0 
L 9.078125 54.6875 
L 18.109375 54.6875 
L 18.109375 46.1875 
Q 21.1875 51.21875 25.484375 53.609375 
Q 29.78125 56 35.6875 56 
Q 41.65625 56 45.828125 52.96875 
Q 50 49.953125 52 44.1875 
z
" id="DejaVuSans-6d"/>
     <path d="M 30.609375 48.390625 
Q 23.390625 48.390625 19.1875 42.75 
Q 14.984375 37.109375 14.984375 27.296875 
Q 14.984375 17.484375 19.15625 11.84375 
Q 23.34375 6.203125 30.609375 6.203125 
Q 37.796875 6.203125 41.984375 11.859375 
Q 46.1875 17.53125 46.1875 27.296875 
Q 46.1875 37.015625 41.984375 42.703125 
Q 37.796875 48.390625 30.609375 48.390625 
z
M 30.609375 56 
Q 42.328125 56 49.015625 48.375 
Q 55.71875 40.765625 55.71875 27.296875 
Q 55.71875 13.875 49.015625 6.21875 
Q 42.328125 -1.421875 30.609375 -1.421875 
Q 18.84375 -1.421875 12.171875 6.21875 
Q 5.515625 13.875 5.515625 27.296875 
Q 5.515625 40.765625 12.171875 48.375 
Q 18.84375 56 30.609375 56 
z
" id="DejaVuSans-6f"/>
     <path d="M 44.28125 53.078125 
L 44.28125 44.578125 
Q 40.484375 46.53125 36.375 47.5 
Q 32.28125 48.484375 27.875 48.484375 
Q 21.1875 48.484375 17.84375 46.4375 
Q 14.5 44.390625 14.5 40.28125 
Q 14.5 37.15625 16.890625 35.375 
Q 19.28125 33.59375 26.515625 31.984375 
L 29.59375 31.296875 
Q 39.15625 29.25 43.1875 25.515625 
Q 47.21875 21.78125 47.21875 15.09375 
Q 47.21875 7.46875 41.1875 3.015625 
Q 35.15625 -1.421875 24.609375 -1.421875 
Q 20.21875 -1.421875 15.453125 -0.5625 
Q 10.6875 0.296875 5.421875 2 
L 5.421875 11.28125 
Q 10.40625 8.6875 15.234375 7.390625 
Q 20.0625 6.109375 24.8125 6.109375 
Q 31.15625 6.109375 34.5625 8.28125 
Q 37.984375 10.453125 37.984375 14.40625 
Q 37.984375 18.0625 35.515625 20.015625 
Q 33.0625 21.96875 24.703125 23.78125 
L 21.578125 24.515625 
Q 13.234375 26.265625 9.515625 29.90625 
Q 5.8125 33.546875 5.8125 39.890625 
Q 5.8125 47.609375 11.28125 51.796875 
Q 16.75 56 26.8125 56 
Q 31.78125 56 36.171875 55.265625 
Q 40.578125 54.546875 44.28125 53.078125 
z
" id="DejaVuSans-73"/>
     <path id="DejaVuSans-20"/>
     <path d="M 64.40625 67.28125 
L 64.40625 56.890625 
Q 59.421875 61.53125 53.78125 63.8125 
Q 48.140625 66.109375 41.796875 66.109375 
Q 29.296875 66.109375 22.65625 58.46875 
Q 16.015625 50.828125 16.015625 36.375 
Q 16.015625 21.96875 22.65625 14.328125 
Q 29.296875 6.6875 41.796875 6.6875 
Q 48.140625 6.6875 53.78125 8.984375 
Q 59.421875 11.28125 64.40625 15.921875 
L 64.40625 5.609375 
Q 59.234375 2.09375 53.4375 0.328125 
Q 47.65625 -1.421875 41.21875 -1.421875 
Q 24.65625 -1.421875 15.125 8.703125 
Q 5.609375 18.84375 5.609375 36.375 
Q 5.609375 53.953125 15.125 64.078125 
Q 24.65625 74.21875 41.21875 74.21875 
Q 47.75 74.21875 53.53125 72.484375 
Q 59.328125 70.75 64.40625 67.28125 
z
" id="DejaVuSans-43"/>
     <path d="M 56.203125 29.59375 
L 56.203125 25.203125 
L 14.890625 25.203125 
Q 15.484375 15.921875 20.484375 11.0625 
Q 25.484375 6.203125 34.421875 6.203125 
Q 39.59375 6.203125 44.453125 7.46875 
Q 49.3125 8.734375 54.109375 11.28125 
L 54.109375 2.78125 
Q 49.265625 0.734375 44.1875 -0.34375 
Q 39.109375 -1.421875 33.890625 -1.421875 
Q 20.796875 -1.421875 13.15625 6.1875 
Q 5.515625 13.8125 5.515625 26.8125 
Q 5.515625 40.234375 12.765625 48.109375 
Q 20.015625 56 32.328125 56 
Q 43.359375 56 49.78125 48.890625 
Q 56.203125 41.796875 56.203125 29.59375 
z
M 47.21875 32.234375 
Q 47.125 39.59375 43.09375 43.984375 
Q 39.0625 48.390625 32.421875 48.390625 
Q 24.90625 48.390625 20.390625 44.140625 
Q 15.875 39.890625 15.1875 32.171875 
z
" id="DejaVuSans-65"/>
     <path d="M 9.421875 75.984375 
L 18.40625 75.984375 
L 18.40625 0 
L 9.421875 0 
z
" id="DejaVuSans-6c"/>
    </defs>
    <g transform="translate(218.556874 44.092482)scale(0.16 -0.16)">
     <use xlink:href="#DejaVuSans-53"/>
     <use x="63.476562" xlink:href="#DejaVuSans-71"/>
     <use x="126.953125" xlink:href="#DejaVuSans-75"/>
     <use x="190.332031" xlink:href="#DejaVuSans-61"/>
     <use x="251.611328" xlink:href="#DejaVuSans-6d"/>
     <use x="349.023438" xlink:href="#DejaVuSans-6f"/>
     <use x="410.205078" xlink:href="#DejaVuSans-75"/>
     <use x="473.583984" xlink:href="#DejaVuSans-73"/>
     <use x="525.683594" xlink:href="#DejaVuSans-20"/>
     <use x="557.470703" xlink:href="#DejaVuSans-43"/>
     <use x="627.294922" xlink:href="#DejaVuSans-65"/>
     <use x="688.818359" xlink:href="#DejaVuSans-6c"/>
     <use x="716.601562" xlink:href="#DejaVuSans-6c"/>
    </g>
    <!-- Carcinoma  -->
    <defs>
     <path d="M 41.109375 46.296875 
Q 39.59375 47.171875 37.8125 47.578125 
Q 36.03125 48 33.890625 48 
Q 26.265625 48 22.1875 43.046875 
Q 18.109375 38.09375 18.109375 28.8125 
L 18.109375 0 
L 9.078125 0 
L 9.078125 54.6875 
L 18.109375 54.6875 
L 18.109375 46.1875 
Q 20.953125 51.171875 25.484375 53.578125 
Q 30.03125 56 36.53125 56 
Q 37.453125 56 38.578125 55.875 
Q 39.703125 55.765625 41.0625 55.515625 
z
" id="DejaVuSans-72"/>
     <path d="M 48.78125 52.59375 
L 48.78125 44.1875 
Q 44.96875 46.296875 41.140625 47.34375 
Q 37.3125 48.390625 33.40625 48.390625 
Q 24.65625 48.390625 19.8125 42.84375 
Q 14.984375 37.3125 14.984375 27.296875 
Q 14.984375 17.28125 19.8125 11.734375 
Q 24.65625 6.203125 33.40625 6.203125 
Q 37.3125 6.203125 41.140625 7.25 
Q 44.96875 8.296875 48.78125 10.40625 
L 48.78125 2.09375 
Q 45.015625 0.34375 40.984375 -0.53125 
Q 36.96875 -1.421875 32.421875 -1.421875 
Q 20.0625 -1.421875 12.78125 6.34375 
Q 5.515625 14.109375 5.515625 27.296875 
Q 5.515625 40.671875 12.859375 48.328125 
Q 20.21875 56 33.015625 56 
Q 37.15625 56 41.109375 55.140625 
Q 45.0625 54.296875 48.78125 52.59375 
z
" id="DejaVuSans-63"/>
     <path d="M 9.421875 54.6875 
L 18.40625 54.6875 
L 18.40625 0 
L 9.421875 0 
z
M 9.421875 75.984375 
L 18.40625 75.984375 
L 18.40625 64.59375 
L 9.421875 64.59375 
z
" id="DejaVuSans-69"/>
     <path d="M 54.890625 33.015625 
L 54.890625 0 
L 45.90625 0 
L 45.90625 32.71875 
Q 45.90625 40.484375 42.875 44.328125 
Q 39.84375 48.1875 33.796875 48.1875 
Q 26.515625 48.1875 22.3125 43.546875 
Q 18.109375 38.921875 18.109375 30.90625 
L 18.109375 0 
L 9.078125 0 
L 9.078125 54.6875 
L 18.109375 54.6875 
L 18.109375 46.1875 
Q 21.34375 51.125 25.703125 53.5625 
Q 30.078125 56 35.796875 56 
Q 45.21875 56 50.046875 50.171875 
Q 54.890625 44.34375 54.890625 33.015625 
z
" id="DejaVuSans-6e"/>
    </defs>
    <g transform="translate(246.461874 62.008982)scale(0.16 -0.16)">
     <use xlink:href="#DejaVuSans-43"/>
     <use x="69.824219" xlink:href="#DejaVuSans-61"/>
     <use x="131.103516" xlink:href="#DejaVuSans-72"/>
     <use x="172.185547" xlink:href="#DejaVuSans-63"/>
     <use x="227.166016" xlink:href="#DejaVuSans-69"/>
     <use x="254.949219" xlink:href="#DejaVuSans-6e"/>
     <use x="318.328125" xlink:href="#DejaVuSans-6f"/>
     <use x="379.509766" xlink:href="#DejaVuSans-6d"/>
     <use x="476.921875" xlink:href="#DejaVuSans-61"/>
     <use x="538.201172" xlink:href="#DejaVuSans-20"/>
    </g>
   </g>
   <g id="text_2">
    <!-- Small Cell -->
    <g transform="translate(144.025632 314.036389)scale(0.16 -0.16)">
     <use xlink:href="#DejaVuSans-53"/>
     <use x="63.476562" xlink:href="#DejaVuSans-6d"/>
     <use x="160.888672" xlink:href="#DejaVuSans-61"/>
     <use x="222.167969" xlink:href="#DejaVuSans-6c"/>
     <use x="249.951172" xlink:href="#DejaVuSans-6c"/>
     <use x="277.734375" xlink:href="#DejaVuSans-20"/>
     <use x="309.521484" xlink:href="#DejaVuSans-43"/>
     <use x="379.345703" xlink:href="#DejaVuSans-65"/>
     <use x="440.869141" xlink:href="#DejaVuSans-6c"/>
     <use x="468.652344" xlink:href="#DejaVuSans-6c"/>
    </g>
    <!-- Carcinoma -->
    <g transform="translate(137.343132 331.952889)scale(0.16 -0.16)">
     <use xlink:href="#DejaVuSans-43"/>
     <use x="69.824219" xlink:href="#DejaVuSans-61"/>
     <use x="131.103516" xlink:href="#DejaVuSans-72"/>
     <use x="172.185547" xlink:href="#DejaVuSans-63"/>
     <use x="227.166016" xlink:href="#DejaVuSans-69"/>
     <use x="254.949219" xlink:href="#DejaVuSans-6e"/>
     <use x="318.328125" xlink:href="#DejaVuSans-6f"/>
     <use x="379.509766" xlink:href="#DejaVuSans-6d"/>
     <use x="476.921875" xlink:href="#DejaVuSans-61"/>
    </g>
   </g>
   <g id="text_3">
    <!-- Other -->
    <defs>
     <path d="M 39.40625 66.21875 
Q 28.65625 66.21875 22.328125 58.203125 
Q 16.015625 50.203125 16.015625 36.375 
Q 16.015625 22.609375 22.328125 14.59375 
Q 28.65625 6.59375 39.40625 6.59375 
Q 50.140625 6.59375 56.421875 14.59375 
Q 62.703125 22.609375 62.703125 36.375 
Q 62.703125 50.203125 56.421875 58.203125 
Q 50.140625 66.21875 39.40625 66.21875 
z
M 39.40625 74.21875 
Q 54.734375 74.21875 63.90625 63.9375 
Q 73.09375 53.65625 73.09375 36.375 
Q 73.09375 19.140625 63.90625 8.859375 
Q 54.734375 -1.421875 39.40625 -1.421875 
Q 24.03125 -1.421875 14.8125 8.828125 
Q 5.609375 19.09375 5.609375 36.375 
Q 5.609375 53.65625 14.8125 63.9375 
Q 24.03125 74.21875 39.40625 74.21875 
z
" id="DejaVuSans-4f"/>
     <path d="M 18.3125 70.21875 
L 18.3125 54.6875 
L 36.8125 54.6875 
L 36.8125 47.703125 
L 18.3125 47.703125 
L 18.3125 18.015625 
Q 18.3125 11.328125 20.140625 9.421875 
Q 21.96875 7.515625 27.59375 7.515625 
L 36.8125 7.515625 
L 36.8125 0 
L 27.59375 0 
Q 17.1875 0 13.234375 3.875 
Q 9.28125 7.765625 9.28125 18.015625 
L 9.28125 47.703125 
L 2.6875 47.703125 
L 2.6875 54.6875 
L 9.28125 54.6875 
L 9.28125 70.21875 
z
" id="DejaVuSans-74"/>
     <path d="M 54.890625 33.015625 
L 54.890625 0 
L 45.90625 0 
L 45.90625 32.71875 
Q 45.90625 40.484375 42.875 44.328125 
Q 39.84375 48.1875 33.796875 48.1875 
Q 26.515625 48.1875 22.3125 43.546875 
Q 18.109375 38.921875 18.109375 30.90625 
L 18.109375 0 
L 9.078125 0 
L 9.078125 75.984375 
L 18.109375 75.984375 
L 18.109375 46.1875 
Q 21.34375 51.125 25.703125 53.5625 
Q 30.078125 56 35.796875 56 
Q 45.21875 56 50.046875 50.171875 
Q 54.890625 44.34375 54.890625 33.015625 
z
" id="DejaVuSans-68"/>
    </defs>
    <g transform="translate(285.04612 470.295707)scale(0.16 -0.16)">
     <use xlink:href="#DejaVuSans-4f"/>
     <use x="78.710938" xlink:href="#DejaVuSans-74"/>
     <use x="117.919922" xlink:href="#DejaVuSans-68"/>
     <use x="181.298828" xlink:href="#DejaVuSans-65"/>
     <use x="242.822266" xlink:href="#DejaVuSans-72"/>
    </g>
   </g>
   <g id="text_4">
    <!-- Adenocarcinoma -->
    <defs>
     <path d="M 34.1875 63.1875 
L 20.796875 26.90625 
L 47.609375 26.90625 
z
M 28.609375 72.90625 
L 39.796875 72.90625 
L 67.578125 0 
L 57.328125 0 
L 50.6875 18.703125 
L 17.828125 18.703125 
L 11.1875 0 
L 0.78125 0 
z
" id="DejaVuSans-41"/>
     <path d="M 45.40625 46.390625 
L 45.40625 75.984375 
L 54.390625 75.984375 
L 54.390625 0 
L 45.40625 0 
L 45.40625 8.203125 
Q 42.578125 3.328125 38.25 0.953125 
Q 33.9375 -1.421875 27.875 -1.421875 
Q 17.96875 -1.421875 11.734375 6.484375 
Q 5.515625 14.40625 5.515625 27.296875 
Q 5.515625 40.1875 11.734375 48.09375 
Q 17.96875 56 27.875 56 
Q 33.9375 56 38.25 53.625 
Q 42.578125 51.265625 45.40625 46.390625 
z
M 14.796875 27.296875 
Q 14.796875 17.390625 18.875 11.75 
Q 22.953125 6.109375 30.078125 6.109375 
Q 37.203125 6.109375 41.296875 11.75 
Q 45.40625 17.390625 45.40625 27.296875 
Q 45.40625 37.203125 41.296875 42.84375 
Q 37.203125 48.484375 30.078125 48.484375 
Q 22.953125 48.484375 18.875 42.84375 
Q 14.796875 37.203125 14.796875 27.296875 
z
" id="DejaVuSans-64"/>
    </defs>
    <g transform="translate(668.952926 388.649385)scale(0.16 -0.16)">
     <use xlink:href="#DejaVuSans-41"/>
     <use x="68.392578" xlink:href="#DejaVuSans-64"/>
     <use x="131.869141" xlink:href="#DejaVuSans-65"/>
     <use x="193.392578" xlink:href="#DejaVuSans-6e"/>
     <use x="256.771484" xlink:href="#DejaVuSans-6f"/>
     <use x="317.953125" xlink:href="#DejaVuSans-63"/>
     <use x="372.933594" xlink:href="#DejaVuSans-61"/>
     <use x="434.212891" xlink:href="#DejaVuSans-72"/>
     <use x="475.294922" xlink:href="#DejaVuSans-63"/>
     <use x="530.275391" xlink:href="#DejaVuSans-69"/>
     <use x="558.058594" xlink:href="#DejaVuSans-6e"/>
     <use x="621.4375" xlink:href="#DejaVuSans-6f"/>
     <use x="682.619141" xlink:href="#DejaVuSans-6d"/>
     <use x="780.03125" xlink:href="#DejaVuSans-61"/>
    </g>
   </g>
   <g id="text_5">
    <!-- Large Cell -->
    <defs>
     <path d="M 9.8125 72.90625 
L 19.671875 72.90625 
L 19.671875 8.296875 
L 55.171875 8.296875 
L 55.171875 0 
L 9.8125 0 
z
" id="DejaVuSans-4c"/>
     <path d="M 45.40625 27.984375 
Q 45.40625 37.75 41.375 43.109375 
Q 37.359375 48.484375 30.078125 48.484375 
Q 22.859375 48.484375 18.828125 43.109375 
Q 14.796875 37.75 14.796875 27.984375 
Q 14.796875 18.265625 18.828125 12.890625 
Q 22.859375 7.515625 30.078125 7.515625 
Q 37.359375 7.515625 41.375 12.890625 
Q 45.40625 18.265625 45.40625 27.984375 
z
M 54.390625 6.78125 
Q 54.390625 -7.171875 48.1875 -13.984375 
Q 42 -20.796875 29.203125 -20.796875 
Q 24.46875 -20.796875 20.265625 -20.09375 
Q 16.0625 -19.390625 12.109375 -17.921875 
L 12.109375 -9.1875 
Q 16.0625 -11.328125 19.921875 -12.34375 
Q 23.78125 -13.375 27.78125 -13.375 
Q 36.625 -13.375 41.015625 -8.765625 
Q 45.40625 -4.15625 45.40625 5.171875 
L 45.40625 9.625 
Q 42.625 4.78125 38.28125 2.390625 
Q 33.9375 0 27.875 0 
Q 17.828125 0 11.671875 7.65625 
Q 5.515625 15.328125 5.515625 27.984375 
Q 5.515625 40.671875 11.671875 48.328125 
Q 17.828125 56 27.875 56 
Q 33.9375 56 38.28125 53.609375 
Q 42.625 51.21875 45.40625 46.390625 
L 45.40625 54.6875 
L 54.390625 54.6875 
z
" id="DejaVuSans-67"/>
    </defs>
    <g transform="translate(521.963849 19.3575)scale(0.16 -0.16)">
     <use xlink:href="#DejaVuSans-4c"/>
     <use x="55.712891" xlink:href="#DejaVuSans-61"/>
     <use x="116.992188" xlink:href="#DejaVuSans-72"/>
     <use x="158.089844" xlink:href="#DejaVuSans-67"/>
     <use x="221.566406" xlink:href="#DejaVuSans-65"/>
     <use x="283.089844" xlink:href="#DejaVuSans-20"/>
     <use x="314.876953" xlink:href="#DejaVuSans-43"/>
     <use x="384.701172" xlink:href="#DejaVuSans-65"/>
     <use x="446.224609" xlink:href="#DejaVuSans-6c"/>
     <use x="474.007812" xlink:href="#DejaVuSans-6c"/>
    </g>
    <!-- Carcinoma -->
    <g transform="translate(521.963849 37.274)scale(0.16 -0.16)">
     <use xlink:href="#DejaVuSans-43"/>
     <use x="69.824219" xlink:href="#DejaVuSans-61"/>
     <use x="131.103516" xlink:href="#DejaVuSans-72"/>
     <use x="172.185547" xlink:href="#DejaVuSans-63"/>
     <use x="227.166016" xlink:href="#DejaVuSans-69"/>
     <use x="254.949219" xlink:href="#DejaVuSans-6e"/>
     <use x="318.328125" xlink:href="#DejaVuSans-6f"/>
     <use x="379.509766" xlink:href="#DejaVuSans-6d"/>
     <use x="476.921875" xlink:href="#DejaVuSans-61"/>
    </g>
   </g>
  </g>
 </g>
</svg>
